<svg xmlns="http://www.w3.org/2000/svg" viewBox="0 0 183.75 227.06"><defs><style>.cls-1{fill:#545252;}.cls-2{fill:#706c6c;}.cls-3{fill:#fff;}.cls-4{fill:#f1edec;}.cls-5{fill:none;}</style></defs><title>Asset 1</title><g id="Layer_2" data-name="Layer 2"><g id="Objects"><path class="cls-1" d="M64.08,73.48s-2.52-29-21.26-45.15-25.58-9.67-28.46-2.86-1.8,17.55,0,30.81S5.71,79.21,7.87,90.68s10.81,14,11.53,20.42C19.4,111.1,51.47,77.06,64.08,73.48Z"/><path class="cls-2" d="M41.38,83.39c13.84-12.32,4-42.75-6.92-51.09s-14.9,6.15-14.9,6.15a171.58,171.58,0,0,0,1.78,18.13C23.16,70,12.6,79.77,14.78,91.36A22.92,22.92,0,0,0,16.6,97C31.53,101.91,41.38,83.39,41.38,83.39Z"/><path class="cls-1" d="M114.56,73.48s2.52-29,21.25-45.15,25.58-9.67,28.46-2.86,1.81,17.55,0,30.81,8.65,22.93,6.49,34.4-10.81,14-11.53,20.42C159.23,111.1,127.17,77.06,114.56,73.48Z"/><path class="cls-2" d="M137.25,83.39c-13.84-12.32-4-42.75,6.93-51.09s14.89,6.15,14.89,6.15a171.58,171.58,0,0,1-1.78,18.13C155.47,70,166,79.77,163.85,91.36A22.92,22.92,0,0,1,162,97C147.1,101.91,137.25,83.39,137.25,83.39Z"/><path class="cls-3" d="M165.74,106.54c-15.48-37-76.6-36.49-76.6-36.49s-64.33-.51-76.61,36.49c-15,45.28,5.15,78.75,24.46,88.35s28.33,16,52.15,16,32.83-6.4,52.14-16S184.16,150.56,165.74,106.54Z"/><path class="cls-1" d="M145,193.61c0-.23,1.69-20.18-13.19-30.05s-29.39-19-27.95-34.17,7.86-47.22,19.42-55.2h0c17.87,4.41,37.59,13.52,43.84,32.35C181.59,150,163.59,182.57,145,193.61Z"/><path class="cls-1" d="M33.59,193.61c0-.23-1.69-20.18,13.2-30.05s29.38-19,27.94-34.17-7.86-47.22-19.42-55.2h0C37.42,78.6,17.7,87.71,11.45,106.54-3,150,15,182.57,33.59,193.61Z"/><path d="M140.37,135.1a12.32,12.32,0,1,1-12.32-12.24A12.28,12.28,0,0,1,140.37,135.1Z"/><path class="cls-4" d="M127.52,129.39a3.21,3.21,0,1,1-3.2-3.18A3.19,3.19,0,0,1,127.52,129.39Z"/><path d="M60.71,135.1A12.31,12.31,0,1,1,48.4,122.86,12.28,12.28,0,0,1,60.71,135.1Z"/><path class="cls-4" d="M47.87,129.39a3.21,3.21,0,1,1-3.21-3.18A3.2,3.2,0,0,1,47.87,129.39Z"/><path d="M88.54,152.36S74.05,152,71.23,160c0,0,.81,14.81,17.31,14.81S105.84,160,105.84,160C103,152,88.54,152.36,88.54,152.36Z"/><path d="M118.1,174.12c-.09.58-2.3,14.2-14.1,14.2-10.79,0-13.65-11.47-14.13-13.91v0h0c0-.2-.06-.35-.07-.39l-1.25.19L87.29,174s0,.19-.07.39h0v0c-.49,2.44-3.34,13.91-14.13,13.91-11.8,0-14-13.62-14.1-14.2l-2.59.38c0,.17,2.62,16.42,16.69,16.42,9.22,0,13.56-7,15.46-11.93,1.9,4.9,6.24,11.93,15.46,11.93,14.06,0,16.66-16.25,16.69-16.42Z"/><rect class="cls-5" width="183.75" height="227.06"/></g></g></svg>